# xmcd
#
# Track frame offsets:
#	150
#	15112
#	33150
#	45112
#	61912
#	80175
#	99225
#	124425
#	133725
#
# Disc length: 1989 seconds
#
# Revision: 0
# Processed by: cddbd v1.4PL0 Copyright (c) Steve Scherf et al.
# Submitted via: audiograbber 1.80.04
#
DISCID=6607c309
DTITLE=Andy Statman - Andy's Ramble
DYEAR=1994
DGENRE=Bluegrass
TTITLE0=Up In The Morning
TTITLE1=Land Epic Waltz
TTITLE2=Andy's Ramble
TTITLE3=On The Narrow
TTITLE4=The Open Sea
TTITLE5=Sara's Dance
TTITLE6=Oceanic Waltz
TTITLE7=Avenue 'L" Breakdown
TTITLE8=Back and Forth
EXTD=
EXTT0=
EXTT1=
EXTT2=
EXTT3=
EXTT4=
EXTT5=
EXTT6=
EXTT7=
EXTT8=
PLAYORDER=
